<svg width="13" height="16" viewBox="0 0 13 16" fill="none" xmlns="http://www.w3.org/2000/svg">
<path d="M0 2V2.5C0 2.522 0.000999948 2.544 0.00399995 2.565L1.351 14.229C1.40718 14.7164 1.64056 15.1662 2.00674 15.4927C2.37293 15.8192 2.84637 15.9998 3.337 16H9.664C10.1545 15.9998 10.6278 15.8194 10.994 15.4931C11.3601 15.1667 11.5936 14.7172 11.65 14.23L12.996 2.564C12.9981 2.54774 12.9995 2.53139 13 2.515V2C13 1.46957 12.7893 0.960859 12.4142 0.585786C12.0391 0.210714 11.5304 0 11 0H2C1.46957 0 0.960859 0.210714 0.585786 0.585786C0.210714 0.960859 0 1.46957 0 2ZM7.799 5.75L8.251 6.532C8.28383 6.58893 8.30513 6.65177 8.31367 6.71692C8.32222 6.78208 8.31785 6.84828 8.30081 6.91175C8.28377 6.97522 8.25439 7.03471 8.21436 7.08683C8.17433 7.13895 8.12443 7.18267 8.0675 7.2155C8.01057 7.24833 7.94774 7.26963 7.88258 7.27817C7.81742 7.28672 7.75121 7.28235 7.68775 7.26531C7.62428 7.24827 7.56479 7.21889 7.51267 7.17886C7.46055 7.13883 7.41683 7.08893 7.384 7.032L6.933 6.25C6.88911 6.174 6.826 6.11088 6.74999 6.067C6.67398 6.02312 6.58776 6.00002 6.5 6.00002C6.41224 6.00002 6.32602 6.02312 6.25001 6.067C6.174 6.11088 6.11089 6.174 6.067 6.25L5.615 7.032C5.58241 7.08932 5.5388 7.13963 5.48669 7.18003C5.43457 7.22043 5.37498 7.25013 5.31135 7.2674C5.24771 7.28468 5.18128 7.2892 5.11589 7.2807C5.0505 7.2722 4.98744 7.25085 4.93034 7.21788C4.87323 7.18491 4.82321 7.14097 4.78316 7.08859C4.7431 7.03621 4.71381 6.97642 4.69695 6.91267C4.6801 6.84892 4.67602 6.78247 4.68495 6.71714C4.69388 6.65181 4.71565 6.58888 4.749 6.532L5.201 5.75C5.778 4.75 7.221 4.75 7.799 5.75ZM8.665 9.25L8.557 9.064C8.4907 8.94903 8.47278 8.81243 8.50719 8.68425C8.54161 8.55606 8.62553 8.4468 8.7405 8.3805C8.85547 8.3142 8.99207 8.29628 9.12025 8.33069C9.24844 8.36511 9.3577 8.44903 9.424 8.564L9.531 8.75C9.66265 8.97803 9.73196 9.23669 9.73196 9.49999C9.73196 9.76329 9.66266 10.022 9.53101 10.25C9.39936 10.478 9.21001 10.6674 8.98199 10.799C8.75396 10.9307 8.4953 11 8.232 11H7.5C7.36739 11 7.24021 10.9473 7.14645 10.8536C7.05268 10.7598 7 10.6326 7 10.5C7 10.3674 7.05268 10.2402 7.14645 10.1464C7.24021 10.0527 7.36739 10 7.5 10H8.232C8.31977 10 8.40599 9.97689 8.482 9.93301C8.558 9.88912 8.62112 9.826 8.665 9.74999C8.70889 9.67399 8.73199 9.58776 8.73199 9.5C8.73199 9.41223 8.70888 9.32601 8.665 9.25ZM5.5 10C5.63261 10 5.75979 10.0527 5.85355 10.1464C5.94732 10.2402 6 10.3674 6 10.5C6 10.6326 5.94732 10.7598 5.85355 10.8536C5.75979 10.9473 5.63261 11 5.5 11H4.768C4.50461 11.0002 4.24583 10.931 4.01766 10.7994C3.7895 10.6678 3.60001 10.4785 3.46824 10.2504C3.33647 10.0224 3.26708 9.76363 3.26704 9.50024C3.267 9.23685 3.33631 8.9781 3.468 8.75L3.576 8.564C3.64278 8.4501 3.75189 8.36723 3.87954 8.33348C4.00719 8.29973 4.143 8.31784 4.25735 8.38386C4.37169 8.44988 4.45528 8.55845 4.48987 8.68587C4.52447 8.81329 4.50726 8.94922 4.442 9.064L4.335 9.25C4.29112 9.32601 4.26801 9.41223 4.26801 9.5C4.26801 9.58776 4.29111 9.67399 4.335 9.74999C4.37888 9.826 4.442 9.88912 4.518 9.93301C4.59401 9.97689 4.68023 10 4.768 10H5.5Z" fill="white"/>
</svg>
