<svg width="18" height="20" viewBox="0 0 18 20" fill="none" xmlns="http://www.w3.org/2000/svg">
<path d="M0.80302 3.6C0.753869 3.14626 0.800838 2.68725 0.940867 2.25286C1.0809 1.81847 1.31085 1.41845 1.61574 1.07884C1.92064 0.739222 2.29365 0.467633 2.71048 0.281754C3.12731 0.0958753 3.57862 -0.000126421 4.03502 1.24943e-07H13.965C14.4213 1.40087e-05 14.8725 0.0961191 15.2892 0.28206C15.706 0.468001 16.0788 0.73961 16.3836 1.07921C16.6884 1.41881 16.9183 1.81878 17.0583 2.2531C17.1982 2.68741 17.2452 3.14634 17.196 3.6L15.64 17.991C15.5806 18.5428 15.3193 19.0532 14.9064 19.424C14.4934 19.7948 13.958 20 13.403 20H4.59602C4.04117 20 3.50589 19.795 3.09299 19.4244C2.68009 19.0538 2.4187 18.5436 2.35902 17.992L0.80302 3.6ZM2.30302 2.997H15.697C15.6361 2.58114 15.4275 2.20109 15.1095 1.92625C14.7916 1.65141 14.3853 1.50012 13.965 1.5H4.03502C3.14502 1.5 2.42402 2.16 2.30302 2.997ZM8.79202 8.409C8.81489 8.37497 8.84578 8.34709 8.88196 8.32781C8.91815 8.30853 8.95852 8.29844 8.99952 8.29844C9.04052 8.29844 9.08089 8.30853 9.11708 8.32781C9.15326 8.34709 9.18415 8.37497 9.20702 8.409L9.87702 9.409C9.93037 9.49398 10.0002 9.5674 10.0825 9.62489C10.1647 9.68239 10.2576 9.7228 10.3558 9.74374C10.4539 9.76467 10.5552 9.76571 10.6538 9.74677C10.7523 9.72784 10.846 9.68932 10.9294 9.63351C11.0128 9.5777 11.0841 9.50572 11.1392 9.42184C11.1943 9.33796 11.2319 9.24389 11.25 9.14519C11.268 9.04648 11.2661 8.94516 11.2443 8.84722C11.2225 8.74928 11.1812 8.65671 11.123 8.575L10.454 7.575C10.2941 7.33574 10.0777 7.13961 9.82391 7.00396C9.57011 6.86832 9.28679 6.79736 8.99902 6.79736C8.71125 6.79736 8.42793 6.86832 8.17413 7.00396C7.92034 7.13961 7.70391 7.33574 7.54402 7.575L6.87602 8.575C6.76543 8.74036 6.72505 8.94289 6.76378 9.13802C6.8025 9.33315 6.91716 9.50491 7.08252 9.6155C7.24788 9.7261 7.45041 9.76647 7.64554 9.72775C7.84067 9.68902 8.01242 9.57436 8.12302 9.409L8.79202 8.409ZM6.89202 11.628C6.94387 11.5435 6.97847 11.4496 6.9938 11.3517C7.00914 11.2538 7.00492 11.1538 6.98137 11.0575C6.95783 10.9612 6.91544 10.8706 6.85665 10.7908C6.79786 10.711 6.72384 10.6436 6.63886 10.5926C6.55388 10.5416 6.45963 10.5079 6.36156 10.4936C6.26349 10.4792 6.16355 10.4844 6.06751 10.5089C5.97147 10.5334 5.88123 10.5767 5.80202 10.6363C5.72281 10.6958 5.65619 10.7705 5.60602 10.856L5.24202 11.463C4.44202 12.796 5.40202 14.493 6.95702 14.493H7.74902C7.94793 14.493 8.1387 14.414 8.27935 14.2733C8.42 14.1327 8.49902 13.9419 8.49902 13.743C8.49902 13.5441 8.42 13.3533 8.27935 13.2127C8.1387 13.072 7.94793 12.993 7.74902 12.993H6.95702C6.8684 12.9931 6.78135 12.9697 6.70476 12.9251C6.62818 12.8805 6.56482 12.8164 6.52117 12.7393C6.47752 12.6622 6.45516 12.5748 6.45636 12.4862C6.45756 12.3976 6.48229 12.3109 6.52802 12.235L6.89202 11.628ZM11.366 10.598C11.2814 10.6486 11.2075 10.7154 11.1487 10.7946C11.0899 10.8738 11.0473 10.9638 11.0234 11.0595C10.9994 11.1552 10.9945 11.2546 11.0091 11.3522C11.0236 11.4497 11.0572 11.5435 11.108 11.628L11.472 12.235C11.5175 12.3109 11.542 12.3975 11.5431 12.4859C11.5442 12.5744 11.5217 12.6616 11.4781 12.7385C11.4345 12.8155 11.3713 12.8795 11.2948 12.924C11.2184 12.9686 11.1315 12.992 11.043 12.992H10.249C10.0501 12.992 9.85934 13.071 9.71869 13.2117C9.57804 13.3523 9.49902 13.5431 9.49902 13.742C9.49902 13.9409 9.57804 14.1317 9.71869 14.2723C9.85934 14.413 10.0501 14.492 10.249 14.492H11.043C12.597 14.492 13.558 12.797 12.759 11.464L12.395 10.857C12.3444 10.7725 12.2776 10.6988 12.1985 10.6401C12.1194 10.5813 12.0295 10.5388 11.934 10.5148C11.8384 10.4909 11.7391 10.486 11.6416 10.5004C11.5442 10.5149 11.4505 10.5484 11.366 10.599" fill="#ffffff"/>
</svg>
