<svg width="20" height="20" viewBox="0 0 20 20" fill="none" xmlns="http://www.w3.org/2000/svg">
<path d="M13.891 1.04801C14.562 0.376878 15.4721 -0.00021139 16.4211 -0.000305158C17.3702 -0.000398926 18.2804 0.376511 18.9515 1.04751C19.6226 1.71851 19.9997 2.62863 19.9998 3.57766C19.9999 4.52668 19.623 5.43688 18.952 6.10801L18.06 7.00101L13 1.94001L13.891 1.04801ZM11.94 3.00101L1.93999 13C1.53378 13.4062 1.2482 13.9172 1.11499 14.476L0.0199893 19.078C-0.00965902 19.2027 -0.00687927 19.3328 0.0280636 19.4561C0.0630065 19.5794 0.128947 19.6916 0.219597 19.7822C0.310247 19.8727 0.422584 19.9385 0.545893 19.9734C0.669202 20.0082 0.799372 20.0108 0.923989 19.981L5.52499 18.885C6.08418 18.752 6.59548 18.4664 7.00199 18.06L17 8.06101L11.94 3.00101Z" fill="#ffffff"/>
</svg>
