<?xml version="1.0" encoding="UTF-8"?>
<svg id="Layer_2" data-name="Layer 2" xmlns="http://www.w3.org/2000/svg" viewBox="0 0 24 23.93">
  <defs>
    <style>
      .cls-1 {
        fill: #020100;
      }

      .cls-1, .cls-2, .cls-3 {
        stroke-width: 0px;
      }

      .cls-2 {
        fill: #010100;
      }

      .cls-3 {
        fill: #efc426;
      }
    </style>
  </defs>
  <g id="Layer_1-2" data-name="Layer 1">
    <g>
      <path class="cls-3" d="M11.98,23.92c-3.56,0-7.12,0-10.68,0C.58,23.93,0,23.35,0,22.63,0,15.52,0,8.41,0,1.3,0,.58.58,0,1.3,0c7.13,0,14.27,0,21.4,0,.72,0,1.3.58,1.3,1.3,0,7.11,0,14.22,0,21.33,0,.72-.58,1.3-1.3,1.3-3.57,0-7.15,0-10.72,0ZM8.49,11.44s-.01,0-.02,0c-.03-.19-.06-.37-.09-.56-.12-.83-.25-1.65-.36-2.48-.02-.11-.05-.14-.16-.14-.69,0-1.39,0-2.08,0-.12,0-.14.04-.14.15,0,2.23,0,4.46,0,6.7,0,.11.03.15.15.14.42,0,.85,0,1.27,0,.15,0,.19-.04.19-.19,0-1.32,0-2.63,0-3.95,0-.06-.02-.12.02-.19.02.06.03.11.04.17.13.89.25,1.77.38,2.66.07.46.14.92.2,1.38.01.1.06.12.14.12.18,0,.36,0,.54,0,.15,0,.34.05.45-.03.11-.08.07-.28.09-.43.12-.88.24-1.76.36-2.65.06-.45.12-.9.19-1.35.03.07.03.14.03.2,0,1.36,0,2.72,0,4.08,0,.15.04.19.18.18.42,0,.85,0,1.27,0,.11,0,.15-.03.15-.14,0-2.23,0-4.46,0-6.7,0-.13-.05-.15-.16-.15-.69,0-1.39,0-2.08,0-.11,0-.15.03-.16.14-.04.33-.08.66-.12.99-.09.69-.18,1.37-.26,2.06ZM11.89,11.75c0,1.11,0,2.21,0,3.32,0,.15.04.18.18.18.93,0,1.86,0,2.78,0,.78,0,1.3-.52,1.3-1.31,0-1.46,0-2.91,0-4.37,0-.78-.52-1.3-1.31-1.3-.92,0-1.84,0-2.77,0-.15,0-.2.03-.2.19,0,1.1,0,2.2,0,3.3ZM18.62,14.85c.26.31.58.47.96.5.76.06,1.38-.48,1.39-1.24,0-.96,0-1.92,0-2.88,0-.64-.53-1.16-1.17-1.19-.46-.02-.85.11-1.19.5,0-.1,0-.16,0-.22,0-.63,0-1.25,0-1.88,0-.12-.02-.17-.16-.17-.5,0-1.01,0-1.51,0-.11,0-.16.02-.16.15,0,2.23,0,4.46,0,6.7,0,.12.03.15.15.14.37,0,.74,0,1.11,0,.15,0,.31.04.44-.02.11-.05.07-.25.15-.38ZM3.19,11.76c0,1.1,0,2.2,0,3.3,0,.16.05.19.2.19.49,0,.98,0,1.48,0,.11,0,.16-.02.16-.15,0-2.23,0-4.47,0-6.7,0-.12-.04-.14-.15-.14-.5,0-1.01,0-1.51,0-.14,0-.17.04-.17.18,0,1.11,0,2.21,0,3.32Z"/>
      <path class="cls-1" d="M8.49,11.44c.09-.69.18-1.37.26-2.06.04-.33.09-.66.12-.99.01-.11.06-.14.16-.14.69,0,1.39,0,2.08,0,.11,0,.16.02.16.15,0,2.23,0,4.46,0,6.7,0,.12-.04.14-.15.14-.42,0-.85,0-1.27,0-.15,0-.18-.04-.18-.18,0-1.36,0-2.72,0-4.08,0-.07,0-.13-.03-.2-.06.45-.13.9-.19,1.35-.12.88-.24,1.77-.36,2.65-.02.15.02.36-.09.43-.11.07-.3.03-.45.03-.18,0-.36,0-.54,0-.09,0-.13-.02-.14-.12-.06-.46-.14-.92-.2-1.38-.13-.89-.25-1.77-.38-2.66,0-.05-.03-.1-.04-.17-.04.07-.02.13-.02.19,0,1.32,0,2.63,0,3.95,0,.15-.04.2-.19.19-.42-.01-.85,0-1.27,0-.11,0-.15-.03-.15-.14,0-2.23,0-4.46,0-6.7,0-.11.03-.15.14-.15.69,0,1.39,0,2.08,0,.11,0,.14.03.16.14.12.83.24,1.65.36,2.48.03.19.06.37.09.56,0,0,.01,0,.02,0Z"/>
      <path class="cls-1" d="M11.89,11.75c0-1.1,0-2.2,0-3.3,0-.16.05-.19.2-.19.92,0,1.84,0,2.77,0,.78,0,1.31.52,1.31,1.3,0,1.46,0,2.91,0,4.37,0,.79-.52,1.31-1.3,1.31-.93,0-1.86,0-2.78,0-.14,0-.19-.03-.18-.18,0-1.11,0-2.21,0-3.32ZM14.33,11.7s0,0,0,0c0-.59,0-1.18,0-1.77,0-.34-.08-.41-.41-.47-.16-.03-.19.03-.19.18,0,1.31,0,2.62,0,3.92,0,.12,0,.25,0,.37,0,.06,0,.1.08.11.28.02.45-.1.49-.37.02-.11.02-.22.02-.33,0-.55,0-1.09,0-1.64Z"/>
      <path class="cls-2" d="M18.62,14.85c-.08.13-.04.33-.15.38-.12.06-.29.02-.44.02-.37,0-.74,0-1.11,0-.11,0-.15-.03-.15-.14,0-2.23,0-4.46,0-6.7,0-.13.05-.15.16-.15.5,0,1.01,0,1.51,0,.14,0,.16.05.16.17,0,.63,0,1.25,0,1.88,0,.06,0,.12,0,.22.34-.38.73-.52,1.19-.5.64.03,1.17.55,1.17,1.19.01.96,0,1.92,0,2.88,0,.76-.63,1.3-1.39,1.24-.39-.03-.71-.18-.96-.5ZM18.6,12.68c0,.43,0,.86,0,1.29,0,.07,0,.14.06.18.13.07.25.08.39.03.12-.04.14-.14.15-.25.06-.78.02-1.56.02-2.34,0-.09-.02-.17-.03-.26-.03-.14-.18-.22-.35-.2-.15.02-.25.06-.24.25.01.43,0,.86,0,1.29Z"/>
      <path class="cls-1" d="M3.19,11.76c0-1.11,0-2.21,0-3.32,0-.13.03-.18.17-.18.5,0,1.01,0,1.51,0,.11,0,.15.03.15.14,0,2.23,0,4.47,0,6.7,0,.13-.05.15-.16.15-.49,0-.98,0-1.48,0-.15,0-.2-.03-.2-.19,0-1.1,0-2.2,0-3.3Z"/>
      <path class="cls-3" d="M14.33,11.7c0,.55,0,1.09,0,1.64,0,.11,0,.22-.02.33-.04.27-.22.4-.49.37-.08,0-.08-.05-.08-.11,0-.12,0-.25,0-.37,0-1.31,0-2.62,0-3.92,0-.15.03-.21.19-.18.33.06.41.13.41.47,0,.59,0,1.18,0,1.77,0,0,0,0,0,0Z"/>
      <path class="cls-3" d="M18.6,12.68c0-.43,0-.86,0-1.29,0-.19.09-.23.24-.25.17-.02.32.06.35.2.02.08.03.17.03.26,0,.78.04,1.56-.02,2.34,0,.11-.02.21-.15.25-.14.05-.26.04-.39-.03-.07-.04-.06-.11-.06-.18,0-.43,0-.86,0-1.29Z"/>
    </g>
  </g>
</svg>