<?xml version="1.0" encoding="UTF-8"?>
<svg id="Layer_2" data-name="Layer 2" xmlns="http://www.w3.org/2000/svg" viewBox="0 0 24 24">
  <defs>
    <style>
      .cls-1 {
        fill: #fdcc35;
      }

      .cls-1, .cls-2 {
        stroke-width: 0px;
      }

      .cls-2 {
        fill: #030202;
      }
    </style>
  </defs>
  <g id="Layer_1-2" data-name="Layer 1">
    <g>
      <path class="cls-2" d="M11.99,2.66c5.17-.01,9.35,4.17,9.35,9.35,0,5.13-4.15,9.3-9.27,9.32-5.19.02-9.39-4.13-9.41-9.3-.02-5.17,4.16-9.37,9.33-9.38ZM6.39,12.11c-.41-.23-.69-.76-1.02-.69-.36.08-.62.54-.93.84-.09.09-.18.18-.26.26-.57.57-.56.56.03,1.12,2.02,1.88,3.92,3.87,5.88,5.81.23.23.36.31.62.02.45-.5.93-.98,1.43-1.43.3-.27.23-.42-.02-.66-1.17-1.14-2.32-2.31-3.48-3.46-.35-.34-.62-.72-.7-1.22-.08-.56.07-1.02.53-1.36.44-.33.9-.26,1.36-.05.38.18.67.46.96.75,1.11,1.11,2.22,2.2,3.32,3.32.25.26.4.35.69.03.44-.51.94-.98,1.43-1.43.24-.22.24-.35,0-.58-1.2-1.17-2.37-2.36-3.55-3.54-.31-.31-.56-.64-.68-1.07-.15-.56.01-1.02.42-1.4.41-.38.89-.39,1.39-.18.47.2.83.54,1.18.89,1.1,1.09,2.19,2.18,3.28,3.29.2.21.32.24.54.01.48-.52.99-1.03,1.51-1.51.26-.23.21-.36-.02-.58-.64-.61-1.25-1.26-1.89-1.88-.92-.88-1.73-1.89-2.79-2.63-.7-.49-1.46-.82-2.34-.72-1.72.19-2.97,1.77-2.93,3.62,0,.18.11.37-.02.55-1.93-.75-4.33,1.26-3.93,3.85Z"/>
      <path class="cls-1" d="M12,0C5.37,0,0,5.37,0,12s5.37,12,12,12,12-5.37,12-12S18.63,0,12,0ZM12,21.35c-5.16,0-9.35-4.18-9.35-9.35S6.84,2.65,12,2.65s9.35,4.18,9.35,9.35-4.18,9.35-9.35,9.35Z"/>
    </g>
  </g>
</svg>