<svg width="25" height="25" viewBox="0 0 25 25" fill="none" xmlns="http://www.w3.org/2000/svg">
<path fill-rule="evenodd" clip-rule="evenodd" d="M15.5285 16.9906C13.6712 18.4745 11.3163 19.191 8.94724 18.9928C6.57823 18.7947 4.37501 17.6969 2.79009 15.925C1.20517 14.1532 0.358866 11.8417 0.424989 9.46532C0.491111 7.08895 1.46464 4.8281 3.14564 3.1471C4.82664 1.46611 7.08749 0.492576 9.46385 0.426454C11.8402 0.360331 14.1517 1.20664 15.9236 2.79156C17.6954 4.37648 18.7932 6.5797 18.9914 8.94871C19.1895 11.3177 18.4731 13.6727 16.9891 15.53L24.0938 22.6333C24.1954 22.7279 24.2768 22.842 24.3333 22.9688C24.3898 23.0955 24.4202 23.2324 24.4226 23.3712C24.4251 23.5099 24.3995 23.6478 24.3475 23.7764C24.2956 23.9051 24.2182 24.022 24.1201 24.1202C24.0219 24.2183 23.905 24.2957 23.7764 24.3476C23.6477 24.3996 23.5098 24.4251 23.3711 24.4227C23.2323 24.4202 23.0955 24.3899 22.9687 24.3334C22.8419 24.2769 22.7278 24.1955 22.6332 24.0939L15.5285 16.9906ZM4.60685 14.8382C3.59549 13.8268 2.90667 12.5382 2.62744 11.1354C2.34822 9.73252 2.49111 8.2784 3.03807 6.95676C3.58503 5.63512 4.51151 4.50528 5.70041 3.71003C6.88932 2.91479 8.28728 2.48983 9.71763 2.48887C11.148 2.48791 12.5465 2.91098 13.7365 3.70463C14.9265 4.49827 15.8545 5.62686 16.4032 6.94776C16.9519 8.26867 17.0968 9.7226 16.8195 11.1258C16.5421 12.529 15.855 13.8185 14.845 14.8313L14.8381 14.8382L14.8312 14.8437C13.4741 16.1977 11.635 16.9577 9.71791 16.9567C7.80083 16.9556 5.96255 16.1937 4.60685 14.8382Z" fill="#bf121d"/>
</svg>
